# xmcd CD database file
#
# Track frame offsets:
#	150
#	13866
#	30648
#	53016
#	68352
#	87223
#	107680
#	121416
#	138291
#	153777
#	171328
#	195172
#
# Disc length: 2816 seconds
#
# Revision: 0
# Processed by: cddbd v1.5.2PL0 Copyright (c) Steve Scherf et al.
# Submitted via: CDex 1.70beta2
#
DISCID=8b0afe0c
DTITLE=Gitty Fisher - Right After Midnight
DYEAR=2005
DGENRE=Country
TTITLE0=Dancing In The Delta
TTITLE1=Cause Of You I'm Alive
TTITLE2=Just One Second
TTITLE3=Can't Stay Anymore
TTITLE4=Smaland Highland
TTITLE5=Land Of Lakes
TTITLE6=Right After Midnight
TTITLE7=Lonesome To The Bone
TTITLE8=Up There
TTITLE9=Up To You
TTITLE10=All Alone
TTITLE11=Hell Or Paradise
EXTD=YEAR: 2005
EXTT0=
EXTT1=
EXTT2=
EXTT3=
EXTT4=
EXTT5=
EXTT6=
EXTT7=
EXTT8=
EXTT9=
EXTT10=
EXTT11=
PLAYORDER=
